<?xml version="1.0" standalone="no"?>
<!DOCTYPE svg PUBLIC "-//W3C//DTD SVG 20010904//EN"
 "http://www.w3.org/TR/2001/REC-SVG-20010904/DTD/svg10.dtd">
<svg version="1.0" xmlns="http://www.w3.org/2000/svg"
 width="260.000000pt" height="260.000000pt" viewBox="0 0 260.000000 260.000000"
 preserveAspectRatio="xMidYMid meet">

<g transform="translate(0.000000,260.000000) scale(0.100000,-0.100000)"
fill="#000000" stroke="none">
<path d="M2100 2240 c0 -5 -9 -19 -21 -31 -16 -16 -19 -27 -13 -52 3 -18 11
-35 17 -39 19 -12 -11 -35 -53 -42 -22 -3 -48 -16 -58 -27 -9 -11 -30 -35 -45
-52 -41 -46 -51 -76 -32 -97 23 -25 18 -46 -15 -70 -25 -18 -32 -19 -43 -8
-26 26 -26 48 -3 95 51 106 59 183 12 118 -11 -16 -44 -54 -71 -83 -37 -39
-55 -51 -68 -47 -9 4 -17 13 -17 21 0 8 -7 14 -15 14 -8 0 -15 -7 -15 -15 0
-18 20 -44 89 -113 49 -49 54 -52 70 -38 24 21 42 20 34 -1 -4 -10 -10 -21
-15 -24 -18 -12 6 -40 58 -66 l54 -27 23 22 c30 28 74 28 96 0 l18 -21 37 22
c21 13 36 31 36 42 0 24 -11 24 -58 1 -20 -10 -45 -17 -54 -14 -21 4 -24 35
-5 50 7 6 26 39 42 74 16 35 30 64 31 66 1 2 12 -6 24 -18 l22 -22 16 24 c14
19 16 43 14 127 -2 98 -12 147 -43 214 -12 26 -49 39 -49 17z m50 -245 c14
-19 14 -19 -2 -6 -10 7 -18 18 -18 24 0 6 1 8 3 6 1 -2 9 -13 17 -24z"/>
<path d="M1020 2110 c0 -5 5 -10 10 -10 6 0 10 5 10 10 0 6 -4 10 -10 10 -5 0
-10 -4 -10 -10z"/>
<path d="M1032 2078 c3 -7 13 -15 22 -16 12 -3 17 1 14 10 -3 7 -13 15 -22 16
-12 3 -17 -1 -14 -10z"/>
<path d="M767 1638 c-27 -10 -50 -59 -30 -65 5 -2 7 -24 3 -54 -5 -38 -3 -55
8 -66 38 -38 152 45 152 112 0 27 -30 63 -62 74 -36 13 -34 13 -71 -1z"/>
<path d="M2088 1628 c-24 -8 -28 -15 -28 -47 0 -24 9 -49 25 -71 14 -19 25
-42 25 -51 0 -25 17 -33 24 -12 10 32 26 164 21 173 -8 13 -39 17 -67 8z"/>
<path d="M1317 1510 c-26 -16 -50 -30 -53 -30 -11 0 -84 -55 -84 -63 0 -15 73
-72 109 -84 47 -15 110 -16 152 -1 47 16 119 76 119 100 0 39 -105 107 -166
108 -17 0 -51 -13 -77 -30z m78 -30 c3 -5 -1 -10 -9 -10 -9 0 -25 -18 -36 -40
-23 -45 -40 -52 -40 -16 0 47 65 98 85 66z"/>
<path d="M666 1255 c-75 -19 -83 -32 -85 -133 0 -48 -2 -112 -4 -142 -4 -77
28 -174 62 -185 9 -3 32 -26 51 -50 32 -41 70 -60 70 -34 0 6 9 8 21 4 12 -4
39 -2 60 5 32 11 46 11 78 0 30 -10 43 -10 61 0 12 6 48 13 79 15 84 5 112 15
155 55 45 43 41 60 -12 60 -41 0 -173 -23 -190 -34 -6 -3 -30 4 -54 17 -33 17
-43 28 -43 47 0 15 -7 28 -18 32 -15 6 -16 11 -5 29 10 17 10 23 1 26 -18 6
-16 43 3 64 8 9 21 47 27 83 10 62 10 67 -12 90 -51 54 -150 75 -245 51z"/>
</g>
</svg>
