<?xml version="1.0" encoding="UTF-8" standalone="no"?>
<svg
   version="1.0"
   width="200mm"
   height="200mm"
   viewBox="0 0 566.92913 566.92913"
   preserveAspectRatio="xMidYMid meet"
   id="svg153"
   sodipodiDocname="function_logo.svg"
   inkscapeVersion="1.1.1 (3bf5ae0d25, 2021-09-20)"
   xmlnsInkscape="http://www.inkscape.org/namespaces/inkscape"
   xmlnsSodipodi="http://sodipodi.sourceforge.net/DTD/sodipodi-0.dtd"
   xmlns="http://www.w3.org/2000/svg"
   xmlnsSvg="http://www.w3.org/2000/svg">
  <defs
     id="defs157" />
  <sodipodiNamedview
     id="namedview155"
     pagecolor="#ffffff"
     bordercolor="#666666"
     borderopacity="1.0"
     inkscapePageshadow="2"
     inkscapePageopacity="0.0"
     inkscapePagecheckerboard="0"
     inkscapeDocument-units="pt"
     showgrid="false"
     units="mm"
     inkscapeZoom="1.0847315"
     inkscapeCx="660.99304"
     inkscapeCy="342.48105"
     inkscapeWindow-width="2450"
     inkscapeWindow-height="1051"
     inkscapeWindow-x="1591"
     inkscapeWindow-y="-9"
     inkscapeWindow-maximized="1"
     inkscapeCurrent-layer="svg153">
    <inkscapeGrid
       type="xygrid"
       id="grid159" />
  </sodipodiNamedview>
  <g
     transform="matrix(0.10017795,0,0,-0.1001632,1.7239941,576.6554)"
     fill="#000000"
     stroke="none"
     id="g151">
    <path
       d="M 2600,5614 C 2081,5567 1614,5389 1201,5083 1057,4976 772,4693 671,4557 177,3892 8,3069 204,2280 328,1784 573,1362 947,999 1295,662 1694,439 2150,325 c 471,-117 867,-115 1345,5 188,47 310,92 501,186 423,206 794,532 1062,933 171,255 327,627 386,922 95,469 70,956 -73,1387 -138,418 -327,731 -630,1044 -225,233 -459,404 -735,538 -271,131 -486,201 -766,246 -124,20 -199,26 -375,29 -121,1 -240,1 -265,-1 z m 465,-125 c 865,-72 1667,-627 2055,-1423 92,-188 139,-312 180,-471 116,-451 116,-879 0,-1330 C 5199,1872 4970,1465 4675,1152 4581,1052 4383,885 4260,802 3982,614 3650,474 3330,410 2966,338 2572,344 2208,429 1782,529 1359,762 1026,1080 531,1554 240,2239 240,2930 c 0,682 269,1328 755,1816 197,198 387,338 628,464 305,159 624,253 947,279 228,19 266,19 495,0 z"
       id="path145" />
    <path
       d="m 4070,4614 c -109,-47 -163,-174 -121,-284 12,-30 21,-58 21,-61 0,-4 -247,-250 -549,-548 l -550,-542 -48,28 c -41,24 -59,28 -123,28 -41,0 -87,-4 -101,-8 -27,-9 -30,-4 -263,405 l -235,414 24,49 c 31,60 31,90 2,145 -55,104 -204,108 -268,8 -16,-26 -19,-45 -16,-91 3,-49 8,-62 37,-92 39,-40 88,-59 128,-50 30,6 -7,68 478,-790 l 22,-40 -42,-48 -43,-48 -261,107 c -243,101 -261,110 -266,136 -20,103 -176,106 -202,4 -21,-86 75,-162 149,-119 l 32,19 259,-105 259,-106 1,-80 c 1,-44 4,-86 6,-94 4,-10 -115,-76 -399,-223 l -404,-208 -36,27 c -29,22 -49,28 -101,31 -55,3 -70,0 -100,-20 -77,-52 -103,-151 -63,-235 33,-69 137,-110 216,-84 72,24 124,109 115,187 -3,29 0,31 403,236 l 406,208 43,-42 c 64,-60 120,-83 208,-82 39,0 72,-1 72,-2 0,0 81,-223 180,-494 l 180,-493 -36,-35 c -150,-146 -54,-393 153,-392 64,1 121,28 164,79 77,89 77,202 1,292 -42,49 -87,71 -161,78 l -54,6 -174,470 c -95,259 -176,479 -179,491 -4,16 10,37 62,88 67,68 68,68 103,57 20,-6 216,-75 436,-153 326,-117 400,-146 397,-160 -13,-69 71,-171 151,-183 110,-17 207,70 207,185 0,40 -42,113 -79,137 -70,47 -166,37 -225,-22 l -31,-32 -436,155 -436,156 1,73 1,73 220,86 c 121,48 268,106 327,129 93,38 109,41 125,29 10,-7 34,-14 54,-14 78,0 118,95 66,156 -33,38 -101,38 -134,0 -13,-15 -23,-35 -23,-44 0,-13 -80,-48 -333,-148 -319,-126 -333,-131 -347,-113 -14,18 19,53 535,569 l 551,551 45,-20 c 59,-27 122,-26 184,3 60,28 87,56 114,116 27,59 26,114 -3,175 -42,90 -112,135 -208,135 -29,-1 -69,-8 -88,-16 z M 2797,3107 c 78,-54 111,-174 70,-253 -37,-71 -125,-121 -198,-111 -160,21 -234,206 -131,329 61,72 182,89 259,35 z"
       id="path147" />
    <path
       d="m 2645,3029 c -59,-34 -74,-108 -29,-152 45,-46 112,-42 154,8 22,27 16,94 -12,121 -28,28 -84,40 -113,23 z"
       id="path149" />
  </g>
</svg>
